HIERARCHY
ROOT root
{
	OFFSET 0.000000 0.000000 0.000000
	CHANNELS 6 Xposition Yposition Zposition Zrotation Yrotation Xrotation
	JOINT lhip
	{
		OFFSET 0.058581 -0.082280 -0.017664
		CHANNELS 3 Zrotation Yrotation Xrotation
		JOINT lknee
		{
			OFFSET 0.043451 -0.386469 0.008037
			CHANNELS 3 Zrotation Yrotation Xrotation
			JOINT lankle
			{
				OFFSET -0.014790 -0.426874 -0.037428
				CHANNELS 3 Zrotation Yrotation Xrotation
				JOINT ltoe
				{
					OFFSET 0.041054 -0.060286 0.122042
					CHANNELS 3 Zrotation Yrotation Xrotation
					End Site
					{
						OFFSET 0.000000 0.000000 0.000000
					}
				}
			}
		}
	}
	JOINT rhip
	{
		OFFSET -0.060310 -0.090513 -0.013543
		CHANNELS 3 Zrotation Yrotation Xrotation
		JOINT rknee
		{
			OFFSET -0.043257 -0.383688 -0.004843
			CHANNELS 3 Zrotation Yrotation Xrotation
			JOINT rankle
			{
				OFFSET 0.019056 -0.420046 -0.034562
				CHANNELS 3 Zrotation Yrotation Xrotation
				JOINT rtoe
				{
					OFFSET -0.034840 -0.062106 0.130323
					CHANNELS 3 Zrotation Yrotation Xrotation
					End Site
					{
						OFFSET 0.000000 0.000000 0.000000
					}
				}
			}
		}
	}
	JOINT lowerback
	{
		OFFSET 0.004439 0.124404 -0.038385
		CHANNELS 3 Zrotation Yrotation Xrotation
		JOINT upperback
		{
			OFFSET 0.004488 0.137956 0.026820
			CHANNELS 3 Zrotation Yrotation Xrotation
			JOINT chest
			{
				OFFSET -0.002265 0.056032 0.002855
				CHANNELS 3 Zrotation Yrotation Xrotation
				JOINT lowerneck
				{
					OFFSET -0.013390 0.211636 -0.033468
					CHANNELS 3 Zrotation Yrotation Xrotation
					JOINT upperneck
					{
						OFFSET 0.010113 0.088937 0.050410
						CHANNELS 3 Zrotation Yrotation Xrotation
						End Site
						{
							OFFSET 0.000000 0.000000 0.000000
						}
					}
				}
				JOINT lclavicle
				{
					OFFSET 0.071702 0.114000 -0.018898
					CHANNELS 3 Zrotation Yrotation Xrotation
					JOINT lshoulder
					{
						OFFSET 0.122921 0.045205 -0.019046
						CHANNELS 3 Zrotation Yrotation Xrotation
						JOINT lelbow
						{
							OFFSET 0.255332 -0.015649 -0.022946
							CHANNELS 3 Zrotation Yrotation Xrotation
							JOINT lwrist
							{
								OFFSET 0.265709 0.012698 -0.007375
								CHANNELS 3 Zrotation Yrotation Xrotation
								End Site
								{
									OFFSET 0.000000 0.000000 0.000000
								}
							}
						}
					}
				}
				JOINT rclavicle
				{
					OFFSET -0.082954 0.112472 -0.023707
					CHANNELS 3 Zrotation Yrotation Xrotation
					JOINT rshoulder
					{
						OFFSET -0.113228 0.046853 -0.008472
						CHANNELS 3 Zrotation Yrotation Xrotation
						JOINT relbow
						{
							OFFSET -0.260127 -0.014369 -0.031269
							CHANNELS 3 Zrotation Yrotation Xrotation
							JOINT rwrist
							{
								OFFSET -0.269108 0.006794 -0.006027
								CHANNELS 3 Zrotation Yrotation Xrotation
								End Site
								{
									OFFSET 0.000000 0.000000 0.000000
								}
							}
						}
					}
				}
			}
		}
	}
}
MOTION
Frames: 5
Frame Time: 0.033333
-1.776798 0.519830 1.000036 90.570115 -1.428447 88.232556 0.169381 3.229821 7.813800 2.225017 -15.802712 -5.112077 3.785544 13.655732 -18.644249 0.000000 -0.000000 0.000000 -5.667274 -6.648851 4.102679 -3.459230 5.239096 -1.520649 4.759128 -13.042425 -9.078652 0.000000 -0.000000 0.000000 -1.713369 1.605426 0.995950 0.438886 -3.305441 7.839236 -1.455684 -0.291358 9.231978 -2.211179 -2.089608 20.586859 1.621795 -4.860456 -5.803573 -4.939594 15.991868 -6.686658 -19.292409 -3.770973 -8.220900 19.374285 -31.826243 -19.429751 -8.950191 -13.726518 19.915073 2.521220 -8.598289 -9.124281 21.336102 2.274794 -12.417214 -21.829206 28.806754 -24.303603 9.961461 12.480978 6.490967 
-1.774753 0.519144 1.000080 90.645393 -1.395999 88.601947 0.221561 3.132120 7.721715 2.352880 -15.894887 -5.481179 3.574191 13.838495 -18.623495 0.000000 -0.000000 0.000000 -5.494575 -6.496466 4.102185 -3.540129 5.331306 -1.985750 4.904885 -13.459373 -9.060784 0.000000 -0.000000 0.000000 -1.609868 1.381941 0.986335 0.222051 -3.127351 7.386696 -1.273560 -0.315426 8.669590 -2.108659 -2.769485 17.509860 1.661512 -5.150122 -6.720734 -5.061814 15.549328 -6.295628 -19.185229 -3.424810 -8.389862 19.416234 -31.919703 -19.296955 -8.147286 -14.098074 20.187894 2.474836 -8.270190 -8.780434 21.266318 2.068317 -12.736427 -21.718588 28.765574 -24.204471 9.553541 12.549417 6.618765 
-1.772495 0.518623 1.000064 90.735120 -1.404229 88.825824 0.257246 3.105831 7.806387 2.491101 -15.951849 -5.878633 3.616515 13.886821 -18.504834 0.000000 -0.000000 0.000000 -5.440453 -6.527707 4.232214 -3.564636 5.398997 -2.342561 4.776917 -13.638879 -9.006457 0.000000 -0.000000 0.000000 -1.612548 1.324908 0.952127 0.208415 -3.133789 7.258509 -1.221842 -0.322280 7.786254 -1.901338 -3.091872 14.982619 1.707537 -5.248774 -6.840740 -5.179150 15.068062 -5.750778 -19.070762 -3.182114 -8.609075 19.479164 -31.823510 -19.392118 -7.479491 -14.268454 20.408986 2.527506 -7.878614 -8.213392 21.004450 1.896977 -13.192736 -21.559380 28.647078 -24.158879 9.218987 12.636939 6.696848 
-1.769442 0.518002 0.999813 90.882064 -1.410347 89.004494 0.345006 3.075898 7.965634 2.610153 -16.098517 -6.277202 3.655013 13.971702 -18.394246 0.000000 -0.000000 0.000000 -5.396534 -6.578588 4.458879 -3.565154 5.483950 -2.639842 4.616223 -13.842313 -9.051136 0.000000 -0.000000 0.000000 -1.616567 1.266674 0.789193 0.222874 -3.175079 7.274344 -1.197070 -0.295073 6.718845 -1.677344 -3.331454 12.588426 1.871871 -5.034874 -6.453561 -5.310228 14.532325 -4.937935 -18.965476 -3.106276 -9.019078 19.558259 -31.726413 -19.503375 -6.913332 -14.338085 20.491688 2.575641 -7.511646 -7.403162 20.716200 1.835825 -13.836042 -21.341262 28.587886 -23.964991 9.055330 12.719184 6.951516 
-1.767581 0.517623 0.999599 90.982371 -1.417509 89.069304 0.400738 3.064307 8.029803 2.645217 -16.194798 -6.382479 3.660616 14.015342 -18.382663 0.000000 -0.000000 0.000000 -5.375505 -6.580513 4.611019 -3.560188 5.522944 -2.758290 4.528106 -13.982377 -9.112020 0.000000 -0.000000 0.000000 -1.623184 1.235415 0.652894 0.233772 -3.207124 7.325238 -1.193898 -0.289541 6.200332 -1.562901 -3.437286 11.547685 1.954964 -4.810768 -6.310710 -5.422322 14.273503 -4.576136 -18.882211 -3.083106 -9.188083 19.592430 -31.782058 -19.442847 -6.727683 -14.320838 20.453839 2.567361 -7.376601 -7.045894 20.653070 1.865089 -14.095986 -21.205169 28.678849 -23.789376 8.872660 12.706059 6.964721 
